<svg width="70" height="70" viewBox="0 0 70 70" fill="none" xmlns="http://www.w3.org/2000/svg">
<g clip-path="url(#clip0_19_11)">
<path d="M70 35C70 36.9947 69.8332 38.9512 69.5119 40.8543C68.6205 46.1453 66.5437 51.033 63.5619 55.2344C45.6463 64.4957 24.3537 64.4957 6.43809 55.2344C3.45625 51.033 1.37949 46.1453 0.488086 40.8543C0.166797 38.9512 0 36.9947 0 35C0 28.6809 1.6748 22.7541 4.60469 17.6367C10.6367 7.09981 21.9898 0 35 0C48.0102 0 59.3633 7.09981 65.3953 17.6367C68.3252 22.7541 70 28.6809 70 35Z" fill="#C4F258"/>
<path d="M70 35C70 42.5387 67.6156 49.5209 63.5619 55.2344C45.6477 64.4957 24.3564 64.4957 6.44082 55.2357C2.38438 49.5223 0 42.54 0 35C0 28.6809 1.6748 22.7541 4.60469 17.6367C10.6367 28.1736 21.9898 35.2734 35 35.2734C48.0102 35.2734 59.3633 28.1736 65.3953 17.6367C68.3252 22.7541 70 28.6809 70 35Z" fill="#B1D511"/>
<path d="M61.3744 57.6858V58.0084C57.2742 62.7047 51.9408 66.2963 45.8787 68.276C44.6127 68.6889 43.3152 69.0334 41.9891 69.3014V57.6858H61.3744Z" fill="#A52817"/>
<path d="M61.3744 57.6858V58.0084C58.6414 61.1393 55.3602 63.7793 51.6797 65.7768V57.6858H61.3744Z" fill="#7F0000"/>
<path d="M61.9519 39.8315C61.8107 42.415 60.7544 44.958 58.7811 46.9313C56.8077 48.9047 54.2648 49.961 51.6813 50.1021C51.8205 47.5166 52.8778 44.9748 54.8512 43.0014C56.8246 41.028 59.3664 39.9707 61.9519 39.8315Z" fill="#0F7793"/>
<path d="M61.9519 39.8315C61.8107 42.415 60.7544 44.958 58.7811 46.9313C56.8077 48.9047 54.2648 49.961 51.6813 50.1021L61.9519 39.8315Z" fill="#005B79"/>
<path d="M41.4108 39.8315C43.9942 39.9728 46.5372 41.0291 48.5106 43.0023C50.484 44.9757 51.5403 47.5187 51.6813 50.1021C49.0959 49.9629 46.554 48.9057 44.5806 46.9323C42.6072 44.9589 41.5499 42.4169 41.4108 39.8315Z" fill="#0F7793"/>
<path d="M41.4108 39.8315C43.9942 39.9728 46.5372 41.0291 48.5106 43.0023C50.484 44.9757 51.5403 47.5187 51.6813 50.1021L41.4108 39.8315Z" fill="#005B79"/>
<path d="M50.4428 33.5173H52.9185V56.4157H50.4428V33.5173Z" fill="#0F7793"/>
<path d="M51.6802 33.5173H52.9185V56.4157H51.6802V33.5173Z" fill="#005B79"/>
<path d="M50.4428 51.9312H51.6803V56.4158H50.4428V51.9312Z" fill="#005B79"/>
<path d="M51.6802 51.9312H52.9185V56.4158H51.6802V51.9312Z" fill="#004C60"/>
<path d="M63.7107 28.5224C63.7107 27.5943 63.3828 26.7532 62.843 26.0962C62.3047 25.4407 61.5528 24.9706 60.705 24.7837C61.641 23.3211 61.4988 21.3279 60.1863 20.0154C59.4346 19.2637 58.4578 18.8964 57.4849 18.8964C56.7622 18.8964 56.042 19.0991 55.418 19.4979C55.0454 17.8023 53.5354 16.4924 51.6805 16.4924C50.7523 16.4924 49.9125 16.8203 49.2555 17.3587C48.6 17.8984 48.1299 18.6501 47.943 19.4979C46.4804 18.5619 44.4872 18.7041 43.1747 20.0153C42.4216 20.7683 42.0544 21.7438 42.0544 22.7167C42.0544 23.4394 42.2584 24.1596 42.6573 24.7836C40.9604 25.1562 39.6519 26.6662 39.6519 28.5224C39.6519 29.4493 39.9783 30.2919 40.5181 30.9474C41.0579 31.603 41.8083 32.0744 42.6573 32.2599C41.7214 33.7225 41.8622 35.7158 43.1747 37.0283C43.9277 37.7799 44.9046 38.1473 45.8761 38.1473C46.5988 38.1473 47.3189 37.9446 47.943 37.5457C48.3156 39.2413 49.8256 40.5512 51.6805 40.5512C52.6087 40.5512 53.4486 40.2234 54.1055 39.6836C54.7611 39.1452 55.2311 38.3934 55.418 37.5456C56.8806 38.4816 58.8751 38.3394 60.1863 37.0283C60.9394 36.2752 61.3066 35.2984 61.3066 34.3255C61.3066 33.6028 61.1038 32.8839 60.7049 32.2599C62.4008 31.8874 63.7107 30.3774 63.7107 28.5224Z" fill="#FF6E7C"/>
<path d="M60.7052 32.2599C61.1041 32.8839 61.3069 33.6028 61.3069 34.3255C61.3069 35.2984 60.9397 36.2752 60.1866 37.0283C58.8753 38.3395 56.8809 38.4817 55.4183 37.5456C55.2314 38.3934 54.7613 39.1451 54.1058 39.6836C53.4488 40.2234 52.609 40.5512 51.6808 40.5512V16.4924C53.5358 16.4924 55.0457 17.8023 55.4183 19.4979C56.0423 19.099 56.7624 18.8964 57.4852 18.8964C58.4581 18.8964 59.4349 19.2636 60.1866 20.0154C61.4991 21.3279 61.6413 23.3211 60.7053 24.7837C61.5531 24.9706 62.3048 25.4407 62.8433 26.0962C63.3831 26.7532 63.711 27.5944 63.711 28.5224C63.7107 30.3774 62.4008 31.8874 60.7052 32.2599Z" fill="#FF4852"/>
<path d="M56.6768 28.5225C56.6768 31.2805 54.4401 33.5172 51.6807 33.5172C48.9213 33.5172 46.6859 31.2805 46.6859 28.5225C46.6859 25.7631 48.9213 23.5264 51.6807 23.5264C54.4401 23.5264 56.6768 25.7631 56.6768 28.5225Z" fill="#FED110"/>
<path d="M56.6767 28.5225C56.6767 31.2805 54.44 33.5172 51.6806 33.5172V23.5264C54.44 23.5264 56.6767 25.7631 56.6767 28.5225Z" fill="#FFBC00"/>
<path d="M53.8844 28.5221C53.8844 29.7385 52.898 30.7249 51.6809 30.7249C50.464 30.7249 49.4781 29.7385 49.4781 28.5221C49.4781 27.3052 50.464 26.3186 51.6809 26.3186C52.898 26.3187 53.8844 27.3052 53.8844 28.5221Z" fill="#FFBC00"/>
<path d="M53.8844 28.5221C53.8844 29.7385 52.898 30.7249 51.6809 30.7249V26.3186C52.898 26.3187 53.8844 27.3052 53.8844 28.5221Z" fill="#FFA300"/>
<path d="M56.8627 55.2343C56.1791 56.1955 55.449 57.1224 54.6752 58.0084C53.818 58.99 52.9074 59.9238 51.9463 60.8042H41.1824C40.2049 60.8042 39.4147 60.0126 39.4147 59.0365V56.3349C39.4147 55.3587 40.2049 54.5671 41.1824 54.5671H55.4819C56.041 54.5671 56.5401 54.8269 56.8627 55.2343Z" fill="#DB351D"/>
<path d="M63.5619 55.2343C62.8784 56.1955 62.1483 57.1224 61.3744 58.0084C60.5172 58.99 59.6067 59.9238 58.6455 60.8042H51.6811V54.5671H62.1811C62.7403 54.5671 63.2393 54.8269 63.5619 55.2343Z" fill="#A52817"/>
<path d="M28.0109 57.6858V69.3014C20.341 67.7469 13.5802 63.685 8.62555 58.0071V57.6858H28.0109Z" fill="#A52817"/>
<path d="M28.0109 57.6858V69.3014C24.5697 68.6028 21.3103 67.4024 18.3176 65.7754V57.6858H28.0109Z" fill="#7F0000"/>
<path d="M28.5892 39.8315C28.448 42.415 27.3917 44.958 25.4184 46.9313C23.445 48.9047 20.902 49.961 18.3186 50.1021C18.4578 47.5166 19.515 44.9748 21.4884 43.0014C23.4618 41.028 26.0038 39.9707 28.5892 39.8315Z" fill="#0F7793"/>
<path d="M28.5892 39.8315C28.448 42.415 27.3917 44.958 25.4184 46.9313C23.445 48.9047 20.902 49.961 18.3186 50.1021L28.5892 39.8315Z" fill="#005B79"/>
<path d="M8.04803 39.8315C10.6315 39.9728 13.1744 41.0291 15.1478 43.0023C17.1212 44.9757 18.1775 47.5187 18.3186 50.1021C15.7331 49.9629 13.1913 48.9057 11.2179 46.9323C9.24446 44.9589 8.18721 42.4169 8.04803 39.8315Z" fill="#0F7793"/>
<path d="M8.04803 39.8315C10.6315 39.9728 13.1744 41.0291 15.1478 43.0023C17.1212 44.9757 18.1775 47.5187 18.3186 50.1021L8.04803 39.8315Z" fill="#005B79"/>
<path d="M17.0801 33.5173H19.5558V56.4157H17.0801V33.5173Z" fill="#0F7793"/>
<path d="M18.3176 33.5173H19.556V56.4157H18.3176V33.5173Z" fill="#005B79"/>
<path d="M17.0801 51.9312H18.3175V56.4158H17.0801V51.9312Z" fill="#005B79"/>
<path d="M18.3176 51.9312H19.556V56.4158H18.3176V51.9312Z" fill="#004C60"/>
<path d="M30.3481 28.5224C30.3481 27.5943 30.0203 26.7532 29.4805 26.0962C28.9421 25.4407 28.1903 24.9706 27.3425 24.7837C28.2785 23.3211 28.1363 21.3279 26.8238 20.0154C26.0721 19.2637 25.0952 18.8964 24.1224 18.8964C23.3997 18.8964 22.6794 19.0991 22.0554 19.4979C21.6829 17.8023 20.1728 16.4924 18.318 16.4924C17.3898 16.4924 16.5499 16.8203 15.893 17.3587C15.2374 17.8984 14.7674 18.6501 14.5805 19.4979C13.1179 18.5619 11.1246 18.7041 9.81214 20.0153C9.05909 20.7683 8.69187 21.7438 8.69187 22.7167C8.69187 23.4394 8.89585 24.1596 9.2948 24.7836C7.59784 25.1562 6.28931 26.6662 6.28931 28.5224C6.28931 29.4493 6.61579 30.2919 7.15556 30.9474C7.69532 31.603 8.44577 32.0744 9.2948 32.2599C8.35882 33.7225 8.49964 35.7158 9.81214 37.0283C10.5652 37.7799 11.542 38.1473 12.5136 38.1473C13.2363 38.1473 13.9565 37.9446 14.5805 37.5457C14.953 39.2413 16.4631 40.5512 18.318 40.5512C19.2461 40.5512 20.086 40.2234 20.7429 39.6836C21.3985 39.1452 21.8685 38.3934 22.0554 37.5456C23.5181 38.4816 25.5125 38.3394 26.8238 37.0283C27.5768 36.2752 27.9442 35.2984 27.9442 34.3255C27.9442 33.6028 27.7414 32.8839 27.3426 32.2599C29.0382 31.8874 30.3481 30.3774 30.3481 28.5224Z" fill="#FF6E7C"/>
<path d="M27.3425 32.2599C27.7414 32.8839 27.944 33.6028 27.944 34.3255C27.944 35.2984 27.5768 36.2752 26.8236 37.0283C25.5124 38.3395 23.5179 38.4817 22.0553 37.5456C21.8684 38.3934 21.3984 39.1451 20.7428 39.6836C20.0859 40.2234 19.246 40.5512 18.3178 40.5512V16.4924C20.1728 16.4924 21.6827 17.8023 22.0553 19.4979C22.6793 19.099 23.3995 18.8964 24.1222 18.8964C25.0951 18.8964 26.0719 19.2636 26.8236 20.0154C28.1361 21.3279 28.2783 23.3211 27.3423 24.7837C28.1901 24.9706 28.9418 25.4407 29.4803 26.0962C30.0201 26.7532 30.348 27.5944 30.348 28.5224C30.3481 30.3774 29.0382 31.8874 27.3425 32.2599Z" fill="#FF4852"/>
<path d="M23.3141 28.5225C23.3141 31.2805 21.0774 33.5172 18.318 33.5172C15.5586 33.5172 13.3232 31.2805 13.3232 28.5225C13.3232 25.7631 15.5586 23.5264 18.318 23.5264C21.0774 23.5264 23.3141 25.7631 23.3141 28.5225Z" fill="#FED110"/>
<path d="M23.314 28.5225C23.314 31.2805 21.0773 33.5172 18.3179 33.5172V23.5264C21.0773 23.5264 23.314 25.7631 23.314 28.5225Z" fill="#FFBC00"/>
<path d="M20.5218 28.5221C20.5218 29.7385 19.5354 30.7249 18.3184 30.7249C17.1013 30.7249 16.1155 29.7385 16.1155 28.5221C16.1155 27.3052 17.1014 26.3186 18.3184 26.3186C19.5353 26.3186 20.5218 27.3052 20.5218 28.5221Z" fill="#FFBC00"/>
<path d="M20.5219 28.5221C20.5219 29.7385 19.5354 30.7249 18.3184 30.7249V26.3186C19.5353 26.3187 20.5219 27.3052 20.5219 28.5221Z" fill="#FFA300"/>
<path d="M20.3314 56.3349V59.0365C20.3314 60.0126 19.5412 60.8042 18.5636 60.8042H11.3558C9.52789 59.1294 7.8777 57.2619 6.43805 55.2343C6.76071 54.8269 7.25973 54.5671 7.81891 54.5671H18.5636C19.5412 54.5671 20.3314 55.3587 20.3314 56.3349Z" fill="#DB351D"/>
<path d="M30.5851 56.3356V59.0368C30.5851 60.0132 29.7944 60.804 28.8179 60.804H18.3186V54.5671H28.8179C29.7945 54.567 30.5851 55.359 30.5851 56.3356Z" fill="#A52817"/>
<path d="M45.8787 55.8496V68.276C42.4553 69.3943 38.798 70 35 70C33.0367 70 31.1117 69.8387 29.2359 69.5256C28.8258 69.4586 28.417 69.3834 28.0109 69.3014C26.6861 69.0334 25.3873 68.6889 24.1213 68.2746V55.8496H45.8787Z" fill="#DB351D"/>
<path d="M45.8787 55.8496V68.276C42.4552 69.3943 38.798 70 35 70C33.0367 70 31.1117 69.8387 29.2359 69.5256V55.8496H45.8787Z" fill="#A52817"/>
<path d="M45.8787 55.8496V68.276C42.4553 69.3943 38.7981 70 35 70H34.9987V55.8496H45.8787Z" fill="#7F0000"/>
<path d="M46.5269 35.8118C46.3684 38.7112 45.183 41.5653 42.9682 43.78C40.7535 45.9947 37.8995 47.1802 35 47.3387C35.1561 44.4369 36.3429 41.584 38.5576 39.3693C40.7723 37.1546 43.6252 35.968 46.5269 35.8118Z" fill="#0F7793"/>
<path d="M46.5269 35.8118C46.3684 38.7112 45.183 41.5653 42.9682 43.78C40.7535 45.9947 37.8995 47.1802 35 47.3387L46.5269 35.8118Z" fill="#005B79"/>
<path d="M23.4731 35.8118C26.3725 35.9702 29.2266 37.1557 31.4413 39.3704C33.656 41.5851 34.8415 44.4391 35 47.3387C32.0983 47.1825 29.2454 45.9958 27.0306 43.7811C24.8159 41.5664 23.6294 38.7135 23.4731 35.8118Z" fill="#0F7793"/>
<path d="M23.4731 35.8118C26.3725 35.9702 29.2266 37.1557 31.4413 39.3704C33.656 41.5851 34.8415 44.4391 35 47.3387L23.4731 35.8118Z" fill="#005B79"/>
<path d="M33.7625 28.7258H36.2361V54.425H33.7625V28.7258Z" fill="#0F7793"/>
<path d="M34.9988 28.7258H36.2361V54.425H34.9988V28.7258Z" fill="#005B79"/>
<path d="M33.7625 49.3916H34.9988V54.4248H33.7625V49.3916Z" fill="#005B79"/>
<path d="M34.9988 49.3916H36.2361V54.4248H34.9988V49.3916Z" fill="#004C60"/>
<path d="M48.5008 23.1204C48.5008 22.0788 48.1329 21.1346 47.5271 20.3974C46.9228 19.6616 46.0791 19.1341 45.1276 18.9242C46.1781 17.2827 46.0186 15.0458 44.5454 13.5727C43.7017 12.729 42.6054 12.3168 41.5136 12.3168C40.7024 12.3168 39.8941 12.5443 39.1938 12.992C38.7758 11.089 37.081 9.6189 34.9992 9.6189C33.9575 9.6189 33.0148 9.98681 32.2777 10.5911C31.5418 11.1969 31.0144 12.0406 30.8045 12.992C29.1629 11.9415 26.9261 12.101 25.4529 13.5727C24.6077 14.4179 24.1955 15.5127 24.1955 16.6045C24.1955 17.4157 24.4245 18.2238 24.8721 18.9242C22.9677 19.3423 21.499 21.0371 21.499 23.1204C21.499 24.1606 21.8654 25.1063 22.4712 25.8419C23.077 26.5778 23.9192 27.1067 24.8721 27.3151C23.8216 28.9565 23.9798 31.1935 25.4528 32.6667C26.298 33.5104 27.3942 33.9226 28.4847 33.9226C29.2958 33.9226 30.104 33.6951 30.8044 33.2473C31.2225 35.1503 32.9172 36.6204 34.999 36.6204C36.0407 36.6204 36.9834 36.2525 37.7206 35.6467C38.4564 35.0424 38.9838 34.1987 39.1937 33.2472C40.8353 34.2977 43.0737 34.1382 44.5453 32.6665C45.3905 31.8213 45.8027 30.7251 45.8027 29.6332C45.8027 28.822 45.5752 28.0152 45.1274 27.3149C47.0307 26.8969 48.5008 25.2022 48.5008 23.1204Z" fill="#FF6E7C"/>
<path d="M45.1277 27.3142C45.5755 28.0145 45.803 28.8213 45.803 29.6325C45.803 30.7243 45.3908 31.8206 44.5456 32.6658C43.0739 34.1375 40.8356 34.297 39.194 33.2465C38.9841 34.198 38.4567 35.0416 37.7209 35.646C36.9835 36.2518 36.041 36.6197 34.9993 36.6197V9.61792C37.0811 9.61792 38.7759 11.0881 39.194 12.991C39.8943 12.5434 40.7026 12.3158 41.5137 12.3158C42.6055 12.3158 43.7019 12.728 44.5456 13.5717C46.0187 15.0448 46.1783 17.2817 45.1277 18.9233C46.0793 19.1331 46.9228 19.6606 47.5273 20.3964C48.1331 21.1337 48.501 22.0778 48.501 23.1194C48.5009 25.2014 47.0307 26.896 45.1277 27.3142Z" fill="#FF4852"/>
<path d="M40.6064 23.1196C40.6064 26.215 38.0961 28.7253 34.9993 28.7253C31.9025 28.7253 29.3936 26.215 29.3936 23.1196C29.3936 20.0227 31.9023 17.5125 34.9993 17.5125C38.0963 17.5125 40.6064 20.0226 40.6064 23.1196Z" fill="#FED110"/>
<path d="M40.6064 23.1196C40.6064 26.215 38.0961 28.7253 34.9993 28.7253V17.5125C38.0961 17.5123 40.6064 20.0226 40.6064 23.1196Z" fill="#FFBC00"/>
<path d="M37.4725 23.1192C37.4725 24.4843 36.3654 25.5915 34.9996 25.5915C33.6337 25.5915 32.5273 24.4843 32.5273 23.1192C32.5273 21.7534 33.6337 20.6462 34.9996 20.6462C36.3655 20.6462 37.4725 21.7534 37.4725 23.1192Z" fill="#FFBC00"/>
<path d="M37.4725 23.1192C37.4725 24.4843 36.3654 25.5915 34.9996 25.5915V20.6462C36.3655 20.6462 37.4725 21.7534 37.4725 23.1192Z" fill="#FFA300"/>
<path d="M35.2733 54.3348V57.3658C35.2733 58.4623 34.8202 59.3496 34.2617 59.3496H22.244C21.6855 59.3496 21.2324 58.4623 21.2324 57.3658V54.3348C21.2324 53.2383 21.6855 52.3496 22.244 52.3496H34.2617C34.8201 52.3496 35.2733 53.2383 35.2733 54.3348Z" fill="#DD584A"/>
<path d="M37.3933 54.3348V57.3658C37.3933 58.4623 36.5046 59.3496 35.4095 59.3496H35.0294H29.627C28.5319 59.3496 27.6432 58.4623 27.6432 57.3658V54.3348C27.6432 53.2383 28.5319 52.3496 29.627 52.3496H35.0781H35.4094C36.5046 52.3496 37.3933 53.2383 37.3933 54.3348Z" fill="#DB351D"/>
<path d="M48.767 54.3347V57.3662C48.767 58.4621 47.8796 59.3496 46.7837 59.3496H35V52.3499H46.7835C47.8795 52.3499 48.767 53.2388 48.767 54.3347Z" fill="#A52817"/>
</g>
<defs>
<clipPath id="clip0_19_11">
<rect width="70" height="70" fill="white"/>
</clipPath>
</defs>
</svg>
