<svg width="121" height="102" viewBox="0 0 121 102" fill="none" xmlns="http://www.w3.org/2000/svg">
<path d="M120.83 54.2395L120.786 54.1651C119.117 51.2653 116.016 49.451 112.678 49.451C112.501 49.451 112.324 49.4659 112.146 49.4659C112.885 48.4844 113.594 47.4583 114.258 46.3876C116.282 45.0938 117.714 43.116 118.32 40.7664C118.94 38.3275 118.571 35.7995 117.301 33.6432L117.256 33.5688C116.887 32.9443 116.075 32.7361 115.455 33.1078L115.381 33.1525C111.157 35.6805 109.636 41.0489 111.777 45.4061C108.041 51.3396 102.783 55.8604 96.7429 58.3736L108.484 48.529C108.779 48.2762 108.956 47.9044 108.956 47.5178C108.956 47.1311 108.779 46.7594 108.484 46.5066L99.1502 38.6844C99.2979 36.9148 99.2831 35.1303 99.0763 33.3309C103.684 32.5576 107.096 28.4086 106.874 23.6053V23.531C106.845 22.8023 106.224 22.2372 105.515 22.2669H105.427C102.074 22.4305 99.2093 24.3489 97.6881 27.1149C97.4961 26.5349 97.2894 25.9698 97.0531 25.3898C96.5509 24.1407 95.9602 22.9212 95.2956 21.7316C99.4899 20.1701 102.074 15.7386 101.233 11.1732L101.218 11.0988C101.085 10.385 100.405 9.90917 99.6818 10.043L99.608 10.0579C95.8568 10.7568 93.0656 13.6418 92.2386 17.1513C91.0128 15.6196 89.6689 14.1771 88.1773 12.8387C91.4854 9.71585 92.1204 4.52589 89.4769 0.644573L89.4326 0.570219C89.2406 0.287671 88.9304 0.079478 88.5908 0.0199942C88.2511 -0.0394896 87.8967 0.0348654 87.6013 0.228188L87.5422 0.2728C85.4894 1.70041 84.1012 3.84183 83.6434 6.3104C83.4661 7.30676 83.4366 8.31798 83.5695 9.29946C82.5357 8.63027 81.4576 8.00569 80.35 7.42572C78.5926 5.06124 75.8161 3.66338 72.8772 3.66338C70.9425 3.66338 69.0817 4.25821 67.4867 5.38841L67.4277 5.43302C66.8369 5.8494 66.704 6.68218 67.1175 7.27701L67.1618 7.3365C68.9045 9.83482 71.7696 11.3219 74.7971 11.3219C76.4955 11.3219 78.1347 10.8609 79.5673 9.9984C80.9703 10.7419 82.2994 11.5747 83.5547 12.467C80.0694 13.2551 77.2929 16.0063 76.4954 19.6199L61.3578 6.92011C60.8705 6.5186 60.1616 6.5186 59.6742 6.92011L44.5219 19.6645C43.7391 16.0509 40.9479 13.2997 37.4626 12.5116C38.7179 11.6045 40.047 10.7866 41.4353 10.0281C42.8826 10.9055 44.5219 11.3517 46.2202 11.3517C49.2477 11.3517 52.1128 9.86456 53.8555 7.36624L53.8998 7.30676C54.3133 6.71192 54.1804 5.89402 53.5897 5.46276L53.5158 5.41815C51.9356 4.28795 50.06 3.69312 48.1253 3.69312C45.1864 3.69312 42.41 5.09099 40.6525 7.45547C39.5301 8.03543 38.4668 8.66001 37.433 9.32921C37.5659 8.34772 37.5512 7.3365 37.3592 6.34015C36.9014 3.87157 35.5279 1.71528 33.4751 0.302542L33.4012 0.257929C33.1206 0.0646068 32.7662 -0.00974816 32.4118 0.0497356C32.0721 0.109219 31.762 0.317413 31.57 0.599961L31.5257 0.659444C30.1079 2.72651 29.5762 5.22483 30.034 7.70827C30.4033 9.70098 31.378 11.5004 32.8253 12.8536C31.3337 14.192 29.975 15.6494 28.764 17.1662C28.4981 16.036 28.0403 14.9653 27.3757 13.9838C25.9727 11.9019 23.8313 10.5189 21.3798 10.043L21.3059 10.0281C20.9662 9.96866 20.6118 10.043 20.3164 10.2363C20.0358 10.4297 19.8291 10.7419 19.77 11.084L19.7552 11.1583C18.8987 15.7386 21.5127 20.1701 25.7069 21.7167C24.7322 23.4566 23.9347 25.256 23.3144 27.1C22.96 26.4605 22.5317 25.8508 22.0296 25.3006C20.346 23.4417 18.0569 22.3562 15.5462 22.2372H15.4724C14.7487 22.2074 14.1432 22.7725 14.1137 23.5012V23.5756C13.8922 28.3938 17.3185 32.5428 21.9262 33.3012C21.7194 35.0857 21.7047 36.8702 21.8524 38.6398L12.5335 46.4917C12.2381 46.7445 12.0609 47.1163 12.0609 47.5029C12.0609 47.8896 12.2381 48.2613 12.5335 48.5141L24.3778 58.4479C18.4999 56.024 13.0947 51.5924 9.24013 45.4805C10.2296 43.4729 10.4659 41.1976 9.91948 38.9967C9.29921 36.5579 7.77806 34.5057 5.63664 33.2268L5.5628 33.1822C5.26743 33.0037 4.89822 32.9591 4.57332 33.0335C4.23364 33.1227 3.95305 33.3458 3.77582 33.6432L3.73152 33.7176C1.11751 38.1045 2.49097 43.7554 6.74427 46.462C7.40885 47.5327 8.10297 48.5588 8.85616 49.5402C8.67893 49.5254 8.50171 49.5254 8.32449 49.5254C4.98683 49.5254 1.88547 51.3247 0.216639 54.2395L0.172333 54.3138C-0.182109 54.9384 0.0246493 55.7563 0.659691 56.1132L0.733533 56.1578C2.1513 56.9757 3.76106 57.4218 5.40035 57.4218C8.26542 57.4218 10.9533 56.0983 12.7107 53.8826C17.5695 58.552 23.4473 61.5857 29.4729 62.7159L34.0806 66.5823C33.8148 66.5229 33.5342 66.5377 33.2683 66.6567L33.1945 66.6864C29.6648 68.2925 27.612 71.8467 27.7154 75.5347C26.5339 74.5383 25.4115 73.4527 24.3334 72.2779C25.6921 67.6084 23.2701 62.5969 18.6771 60.8422L18.6033 60.8124C18.2784 60.6934 17.924 60.7083 17.5991 60.8422C17.2889 60.9909 17.0379 61.2585 16.9197 61.5857L16.8902 61.6601C16.0041 64.0097 16.0779 66.5675 17.1117 68.8576C18.1012 71.0734 19.8586 72.7687 22.0591 73.6907C22.8861 74.6424 23.7575 75.5346 24.6584 76.3674C21.1878 76.7838 18.175 79.1334 16.964 82.4794L16.9345 82.5537C16.6834 83.2378 17.0379 83.9962 17.7172 84.249L17.791 84.2788C18.8248 84.6654 19.9029 84.8439 20.9958 84.8439C24.4368 84.8439 27.5677 82.9255 29.1923 79.9513C30.8611 81.0666 32.589 82.0332 34.3612 82.8363C31.1712 84.5167 29.1036 87.9816 29.3547 91.8035V91.8778C29.3842 92.2347 29.5319 92.5619 29.7978 92.7849C30.034 92.9931 30.3442 93.1121 30.6543 93.1121C30.6839 93.1121 30.7134 93.1121 30.7429 93.1121H30.8168C35.4245 92.7998 39.0428 89.1564 39.4858 84.6654C41.4057 85.171 43.3404 85.5131 45.2603 85.6469C44.7286 86.1525 44.256 86.7176 43.8425 87.3422C42.469 89.439 41.9965 91.9522 42.5134 94.4208L42.5281 94.4951C42.661 95.1197 43.2075 95.5509 43.813 95.5509C43.9016 95.5509 43.9902 95.5361 44.0788 95.5212L44.1674 95.5063C48.8638 94.5248 51.9947 90.1379 51.5664 85.4387C52.9103 85.2454 54.2247 84.948 55.5243 84.5613L58.7143 87.2381L57.3999 89.1118C54.9779 92.5619 54.9779 97.9898 57.3999 101.44C57.8134 102.035 58.6405 102.183 59.2312 101.752C59.8219 101.336 59.9696 100.503 59.5413 99.9081C57.7839 97.3949 57.7839 93.1418 59.5413 90.6287L60.3979 89.3944L61.2545 90.6287C63.0119 93.1418 63.0119 97.3949 61.2545 99.9081C60.8409 100.503 60.9739 101.336 61.5646 101.752C61.8009 101.916 62.052 101.99 62.3178 101.99C62.7313 101.99 63.13 101.797 63.3959 101.425C65.8179 97.9749 65.8179 92.547 63.3959 89.097L62.1553 87.3273L65.5668 84.4572C66.9551 84.8885 68.3876 85.2156 69.8497 85.4238C69.4214 90.123 72.5671 94.4951 77.2486 95.4915L77.3225 95.5063C77.4111 95.5212 77.4997 95.5361 77.5883 95.5361C78.1938 95.5361 78.7402 95.1048 78.8732 94.4802L78.8879 94.4059C79.3901 91.9373 78.9175 89.4241 77.5588 87.3273C77.1453 86.7027 76.6727 86.1376 76.141 85.632C78.0609 85.4833 80.0103 85.1562 81.9155 84.6505C82.3585 89.1267 85.9768 92.7849 90.5845 93.0972H90.6583C90.6879 93.0972 90.7174 93.0972 90.747 93.0972C91.0571 93.0972 91.3672 92.9783 91.6035 92.7701C91.8694 92.547 92.0318 92.2198 92.0466 91.8629V91.7737C92.2976 87.937 90.2301 84.4721 87.0401 82.7917C88.8123 81.9886 90.5402 81.0369 92.209 79.9067C93.8336 82.8809 96.9645 84.7992 100.405 84.7992C101.498 84.7992 102.576 84.6059 103.61 84.2193L103.684 84.1895C104.363 83.9367 104.703 83.1783 104.467 82.4942L104.437 82.4199C103.226 79.0591 100.199 76.7095 96.7429 76.3079C97.6438 75.4752 98.5151 74.5829 99.3422 73.6312C103.994 71.698 106.313 66.3593 104.511 61.6006L104.482 61.5262C104.231 60.8422 103.463 60.5001 102.798 60.7529L102.724 60.7827C98.1312 62.5374 95.7091 67.549 97.0678 72.2184C96.0045 73.3932 94.8673 74.4788 93.6859 75.4752C93.7893 71.802 91.7364 68.2479 88.2068 66.627L88.133 66.5972C87.4684 66.2998 86.7004 66.5972 86.4051 67.2515L86.3755 67.3259C84.5442 71.3857 85.8291 76.07 89.1963 78.6724C84.5295 81.4533 79.4048 82.9255 74.4131 83.0296C75.2254 81.721 75.7127 80.2339 75.8161 78.6427C75.8752 77.7207 75.8013 76.8284 75.6093 75.951L91.5445 62.5821C92.7407 62.359 93.9222 62.0616 95.1184 61.6749C99.9772 60.1135 104.452 57.3921 108.233 53.7487C109.99 55.9496 112.678 57.2731 115.528 57.2731C117.153 57.2731 118.777 56.8419 120.195 56.0091L120.269 55.9645C120.978 55.6819 121.185 54.8789 120.83 54.2395ZM115.617 36.2605C116.045 37.4948 116.104 38.8332 115.765 40.1269C115.44 41.4207 114.746 42.5658 113.786 43.4431C112.929 40.9151 113.653 38.0599 115.617 36.2605ZM104.171 25.0924C103.758 27.7394 101.794 29.9106 99.2093 30.5798C99.6375 27.9328 101.602 25.7616 104.171 25.0924ZM74.7823 8.7195C73.0692 8.7195 71.4299 8.0503 70.1893 6.90524C71.0311 6.53347 71.932 6.34015 72.8624 6.34015C74.5756 6.34015 76.2148 7.00934 77.4554 8.1544C76.6136 8.52618 75.7127 8.7195 74.7823 8.7195ZM48.1401 6.34015C49.0705 6.34015 49.9714 6.53347 50.8132 6.90524C49.5727 8.06518 47.9481 8.7195 46.2202 8.7195C45.2898 8.7195 44.3889 8.52618 43.5471 8.1544C44.7877 6.99447 46.427 6.34015 48.1401 6.34015ZM16.8311 25.0924C18.0864 25.4196 19.2236 26.1036 20.1244 27.1C21.0253 28.0963 21.5865 29.3009 21.7933 30.5947C19.2088 29.9106 17.2446 27.7394 16.8311 25.0924ZM7.20209 43.5175C5.2379 41.7032 4.51424 38.8629 5.38558 36.32C6.34553 37.1974 7.02487 38.3424 7.36455 39.6511C7.68945 40.9448 7.63038 42.2832 7.20209 43.5175ZM5.38558 54.7748C4.6767 54.7748 3.96781 54.6558 3.28847 54.4328C4.55855 53.02 6.37506 52.1724 8.30972 52.1724C9.01861 52.1724 9.72749 52.2914 10.4068 52.5144C9.15152 53.942 7.32024 54.7748 5.38558 54.7748ZM21.9853 70.7016C20.8924 70.0027 20.0211 68.9914 19.4746 67.772C18.9282 66.5526 18.751 65.2291 18.9577 63.9353C20.0506 64.6342 20.9219 65.6455 21.4684 66.8649C22.0148 68.0843 22.192 69.4078 21.9853 70.7016ZM20.9662 82.2117C20.6413 82.2117 20.3164 82.182 20.0063 82.1373C21.2173 80.1744 23.3735 78.9401 25.7217 78.9401C26.0466 78.9401 26.3715 78.9698 26.6816 79.0144C25.4706 80.9625 23.3144 82.2117 20.9662 82.2117ZM99.9772 66.8649C100.524 65.6455 101.395 64.6342 102.488 63.9353C102.695 65.2291 102.517 66.5526 101.971 67.772C101.425 68.9914 100.553 70.0027 99.4603 70.7016C99.2536 69.4078 99.4308 68.0843 99.9772 66.8649ZM95.7239 78.9401C98.0721 78.9401 100.228 80.1892 101.439 82.1373C101.114 82.182 100.804 82.2117 100.479 82.2117C98.1312 82.2117 95.975 80.9625 94.764 79.0144C95.0741 78.9698 95.399 78.9401 95.7239 78.9401ZM88.384 69.8093C90.5402 71.3857 91.5592 74.1368 90.9833 76.7541C88.8271 75.1629 87.7933 72.4266 88.384 69.8093ZM89.4326 90.2569C86.8629 89.5282 84.943 87.3273 84.5885 84.6654C87.1582 85.3792 89.0781 87.595 89.4326 90.2569ZM96.61 36.543L95.2956 35.4426C95.7387 35.1898 96.1522 34.9072 96.5509 34.5949C96.5953 35.2493 96.6248 35.8887 96.61 36.543ZM91.0276 31.8587C91.6035 31.6951 92.1943 31.6208 92.7998 31.6208C93.6859 31.6208 94.5572 31.7992 95.3695 32.1412C94.7049 32.7807 93.9369 33.2714 93.0804 33.5986L91.0276 31.8587ZM98.7514 13.0321C98.6924 15.7088 97.0531 18.1328 94.5867 19.1589C94.6458 16.4821 96.2851 14.0582 98.7514 13.0321ZM86.2131 6.81602C86.4494 5.4925 87.0696 4.3177 87.9557 3.36596C88.9895 5.83453 88.4579 8.73437 86.6118 10.6676C86.1097 9.44817 85.962 8.12466 86.2131 6.81602ZM85.386 14.9058C84.4113 17.3893 82.0631 19.0845 79.3605 19.1738C80.3352 16.7052 82.6834 14.995 85.386 14.9058ZM79.1538 21.8208C82.9788 21.8208 86.3164 19.5009 87.749 16.0657C90.7174 19.0548 93.0656 22.5346 94.6163 26.3564C95.0298 27.3677 95.3695 28.3938 95.6501 29.405C94.7344 29.1076 93.7745 28.9589 92.7998 28.9589C91.3672 28.9589 89.9642 29.286 88.7089 29.8957L79.0651 21.8059C79.0947 21.8208 79.1242 21.8208 79.1538 21.8208ZM41.642 19.1738C38.9246 19.0845 36.5765 17.3744 35.6017 14.9058C38.3339 14.995 40.6821 16.7052 41.642 19.1738ZM32.6333 7.21753C32.397 5.89402 32.5447 4.5705 33.0468 3.36596C33.9477 4.30283 34.5532 5.4925 34.8042 6.81602C35.0405 8.13953 34.8929 9.46304 34.3907 10.6676C33.4899 9.71585 32.8844 8.52617 32.6333 7.21753ZM22.2511 13.0321C23.4473 13.5228 24.4811 14.3705 25.2343 15.4709C25.9875 16.5714 26.3863 17.8503 26.4158 19.1589C23.9495 18.1328 22.2954 15.7237 22.2511 13.0321ZM33.2683 16.0806C34.7009 19.5009 38.0385 21.8208 41.8635 21.8208C41.8931 21.8208 41.9226 21.8208 41.9522 21.8208L32.3084 29.9106C31.0531 29.3009 29.6648 28.9737 28.2175 28.9737C27.2428 28.9737 26.2976 29.1224 25.382 29.4199C26.7112 24.5719 29.4285 19.9471 33.2683 16.0806ZM27.9222 33.5837C27.0804 33.2566 26.2976 32.7658 25.6331 32.1264C26.4453 31.7843 27.3167 31.6059 28.2028 31.6059C28.8083 31.6059 29.399 31.6951 29.975 31.8438L27.9222 33.5837ZM24.4664 34.6098C24.8503 34.9221 25.2639 35.2047 25.7069 35.4426L24.4073 36.5282C24.4073 35.8887 24.4221 35.2493 24.4664 34.6098ZM60.5013 9.68611L105.589 47.5029L60.5013 85.3197L15.4133 47.5029L60.5013 9.68611ZM30.4623 76.7541C29.8864 74.1368 30.9054 71.3857 33.0616 69.8093C33.6375 72.4266 32.6185 75.1777 30.4623 76.7541ZM31.9982 90.2569C32.3675 87.595 34.2726 85.3941 36.8423 84.6654C36.4878 87.3124 34.568 89.5282 31.9982 90.2569ZM32.1902 78.7468C35.5574 76.1444 36.8423 71.46 35.011 67.4002L34.9962 67.3705L45.7033 76.3526C45.5556 77.1258 45.5113 77.9289 45.5556 78.7319C45.659 80.3082 46.1464 81.8102 46.9586 83.1188C41.9817 82.9999 36.8571 81.5276 32.1902 78.7468ZM44.9501 92.5173C44.9501 91.2086 45.3194 89.9297 46.0578 88.7995C46.7814 87.6842 47.8004 86.8217 48.9967 86.3012C48.9967 88.9929 47.3869 91.4466 44.9501 92.5173ZM48.1697 78.5386C48.1697 78.494 48.1697 78.4494 48.1697 78.4047L50.252 80.1446C50.1191 80.8436 49.8828 81.5276 49.5136 82.1671C48.7309 81.1261 48.2583 79.877 48.1697 78.5386ZM52.1867 82.6876C52.29 82.4645 52.3639 82.2414 52.4525 82.0184L53.0432 82.5091C52.7626 82.5686 52.482 82.643 52.1867 82.6876ZM68.0479 82.4348L68.8897 81.721C68.9931 82.0481 69.1113 82.3753 69.2442 82.6876C68.8454 82.6132 68.4467 82.524 68.0479 82.4348ZM75.3878 88.8144C76.1115 89.9297 76.4954 91.2086 76.4954 92.5321C74.0439 91.4614 72.4489 89.0077 72.4489 86.3161C73.6451 86.8366 74.6642 87.6842 75.3878 88.8144ZM73.2612 78.5386C73.1726 79.877 72.7 81.1261 71.9173 82.1671C71.5037 81.4384 71.2527 80.6354 71.1345 79.8324L73.2759 78.033C73.2759 78.2114 73.2759 78.375 73.2612 78.5386ZM115.617 54.7153C113.682 54.7153 111.866 53.8677 110.596 52.4549C111.275 52.2319 111.984 52.1129 112.693 52.1129C114.627 52.1129 116.459 52.9606 117.714 54.3733C117.035 54.5964 116.326 54.7153 115.617 54.7153Z" fill="black"/>
</svg>
