<svg width="44" height="34" viewBox="0 0 44 34" fill="none" xmlns="http://www.w3.org/2000/svg">
<path d="M28.628 14.2875C28.628 17.809 26.9165 21.0328 25.1607 23.4062C24.287 24.5874 23.4124 25.5442 22.7567 26.2052C22.446 26.5184 22.1851 26.7645 21.9975 26.936C21.8099 26.7645 21.5489 26.5184 21.2383 26.2052C20.5825 25.5442 19.708 24.5874 18.8342 23.4062C17.0785 21.0328 15.367 17.809 15.367 14.2875C15.367 10.766 17.0785 7.54228 18.8342 5.16881C19.708 3.98759 20.5825 3.03081 21.2383 2.36979C21.5489 2.05666 21.8099 1.81053 21.9975 1.63902C22.1851 1.81053 22.446 2.05666 22.7567 2.36979C23.4124 3.03081 24.287 3.98759 25.1607 5.16881C26.9165 7.54228 28.628 10.766 28.628 14.2875Z" stroke="white"/>
<path d="M18.5495 12.9527C20.7649 15.481 21.6192 19.1481 21.905 22.2534C22.0472 23.7969 22.0468 25.1794 22.0108 26.1757C21.9928 26.6735 21.9659 27.0737 21.9438 27.3481C21.9437 27.3492 21.9436 27.3504 21.9435 27.3516C21.9424 27.3517 21.9414 27.3518 21.9404 27.3519C21.7 27.3772 21.3493 27.4079 20.9132 27.4284C20.0401 27.4695 18.8287 27.4699 17.4763 27.3077C14.7554 26.9815 11.5422 26.0065 9.32684 23.4782C7.11151 20.95 6.25722 17.2828 5.97133 14.1775C5.82923 12.634 5.82959 11.2516 5.8656 10.2552C5.88359 9.75744 5.91043 9.35723 5.93262 9.08286C5.93271 9.08168 5.93281 9.0805 5.9329 9.07932C5.93394 9.07921 5.93497 9.0791 5.93601 9.07899C6.17642 9.05367 6.52709 9.02304 6.96322 9.00251C7.83628 8.96141 9.04763 8.961 10.4001 9.12317C13.121 9.44945 16.3342 10.4244 18.5495 12.9527Z" stroke="white"/>
<path d="M25.7679 12.9527C23.5526 15.481 22.6983 19.1481 22.4124 22.2534C22.2703 23.7969 22.2707 25.1794 22.3067 26.1757C22.3247 26.6735 22.3515 27.0737 22.3737 27.3481C22.3738 27.3492 22.3739 27.3504 22.374 27.3516C22.375 27.3517 22.376 27.3518 22.3771 27.3519C22.6175 27.3772 22.9682 27.4079 23.4043 27.4284C24.2773 27.4695 25.4887 27.4699 26.8411 27.3077C29.562 26.9815 32.7753 26.0065 34.9906 23.4782C37.2059 20.95 38.0602 17.2828 38.3461 14.1775C38.4882 12.634 38.4879 11.2516 38.4518 10.2552C38.4339 9.75744 38.407 9.35723 38.3848 9.08286C38.3847 9.08168 38.3846 9.0805 38.3845 9.07932C38.3835 9.07921 38.3825 9.0791 38.3814 9.07899C38.141 9.05367 37.7904 9.02304 37.3542 9.00251C36.4812 8.96141 35.2698 8.961 33.9174 9.12317C31.1965 9.44945 27.9832 10.4244 25.7679 12.9527Z" stroke="white"/>
</svg>
