<svg width="53" height="40" viewBox="0 0 53 40" fill="none" xmlns="http://www.w3.org/2000/svg">
<path d="M34.3096 16.0714C34.3096 20.3537 32.2294 24.2662 30.1048 27.1383C29.0466 28.5688 27.9876 29.7273 27.1936 30.5277C26.7968 30.9277 26.4669 31.2375 26.2372 31.4465C26.2258 31.4568 26.2147 31.4669 26.2039 31.4767C26.193 31.4669 26.1819 31.4568 26.1706 31.4465C25.9409 31.2375 25.611 30.9277 25.2142 30.5277C24.4201 29.7273 23.3612 28.5688 22.303 27.1383C20.1784 24.2662 18.0981 20.3537 18.0981 16.0714C18.0981 11.7892 20.1784 7.87662 22.303 5.00457C23.3612 3.57406 24.4201 2.41554 25.2142 1.61511C25.611 1.21516 25.9409 0.905318 26.1706 0.696356C26.1819 0.686033 26.193 0.675956 26.2039 0.666128C26.2147 0.675956 26.2258 0.686033 26.2372 0.696356C26.4669 0.905318 26.7968 1.21516 27.1936 1.61511C27.9876 2.41554 29.0466 3.57406 30.1048 5.00457C32.2294 7.87662 34.3096 11.7892 34.3096 16.0714Z" stroke="white"/>
<path d="M22.1108 14.3825C24.8076 17.4603 25.8423 21.9167 26.1882 25.6738C26.3603 27.5432 26.3599 29.2172 26.3163 30.4237C26.2945 31.0265 26.262 31.5114 26.2351 31.8441C26.2324 31.8774 26.2297 31.9091 26.2272 31.9393C26.2008 31.9422 26.173 31.9452 26.1438 31.9483C25.8522 31.979 25.4274 32.0161 24.8992 32.041C23.8421 32.0907 22.3752 32.0912 20.7373 31.8948C17.4452 31.5001 13.5404 30.3192 10.8436 27.2414C8.14669 24.1635 7.112 19.7071 6.7661 15.95C6.59399 14.0807 6.59445 12.4066 6.63805 11.2002C6.65984 10.5974 6.69235 10.1125 6.71926 9.77972C6.72195 9.74647 6.72458 9.71475 6.72714 9.68458C6.75357 9.68166 6.78137 9.67866 6.8105 9.67559C7.10209 9.64488 7.52695 9.60778 8.05513 9.58291C9.11226 9.53315 10.5791 9.53263 12.2171 9.72905C15.5091 10.1238 19.4139 11.3047 22.1108 14.3825Z" stroke="white"/>
<path d="M30.6863 14.3825C27.9894 17.4603 26.9547 21.9167 26.6088 25.6738C26.4367 27.5432 26.4372 29.2172 26.4808 30.4237C26.5025 31.0265 26.5351 31.5114 26.562 31.8441C26.5647 31.8774 26.5673 31.9091 26.5698 31.9393C26.5963 31.9422 26.6241 31.9452 26.6532 31.9483C26.9448 31.979 27.3697 32.0161 27.8978 32.041C28.955 32.0907 30.4218 32.0912 32.0598 31.8948C35.3518 31.5001 39.2566 30.3192 41.9535 27.2414C44.6503 24.1635 45.685 19.7071 46.0309 15.95C46.203 14.0807 46.2026 12.4066 46.159 11.2002C46.1372 10.5974 46.1047 10.1125 46.0778 9.77972C46.0751 9.74647 46.0725 9.71475 46.0699 9.68458C46.0435 9.68166 46.0157 9.67866 45.9865 9.67559C45.6949 9.64488 45.2701 9.60778 44.7419 9.58291C43.6848 9.53315 42.2179 9.53263 40.58 9.72905C37.2879 10.1238 33.3831 11.3047 30.6863 14.3825Z" stroke="white"/>
</svg>
