<svg width="80" height="72" viewBox="0 0 80 72" fill="none" xmlns="http://www.w3.org/2000/svg">
<path d="M16.9684 48.5684C10.6049 49.5323 6.226 53.1535 5.21218 58.0302C4.26307 62.8017 6.75622 67.9114 12.2757 70.3175C16.6519 72.4508 23.0398 71.9935 26.2529 68.8389C29.7394 65.6775 27.4427 60.3699 23.6116 59.6548C22.9964 59.5354 22.6646 59.5324 22.6646 59.5324C22.5942 59.5741 24.173 59.6632 25.4742 61.1825C27.0728 63.0976 27.0728 65.9593 24.802 67.7063C22.4671 69.5336 18.1705 70.1833 13.7607 68.1006C9.99156 66.3306 7.76648 62.2922 8.62652 58.5195C9.40107 54.4294 13.4917 51.7676 17.5547 51.052C21.7775 50.2755 25.674 51.3181 29.5419 53.0649C34.2444 55.2751 37.0651 57.3568 40.165 59.3745C29.9985 49.9241 19.3164 41.9262 11.1408 31.39C7.28258 26.3238 3.39797 19.1044 6.16247 13.5637C6.32486 13.251 6.77106 12.3918 7.33185 11.8595C8.52143 11.6863 10.9849 11.9301 13.5909 13.0815C18.4709 15.2527 22.243 19.6465 24.5176 23.8056C25.8565 26.2488 27.2171 28.7314 28.5976 31.2501L33.4028 30.1821C33.1463 27.72 32.8865 25.2262 32.6235 22.7039C32.3777 20.2128 32.2866 17.9145 32.774 15.5397C34.3682 6.51844 39.9418 5.1272 40.1793 4.88735C43.7881 6.7383 46.4261 9.36949 47.5438 15.4329C48.034 17.817 47.9728 20.105 47.7309 22.5975C47.4788 25.1206 47.23 27.6146 46.9842 30.077L51.788 31.1391C53.1637 28.6327 54.5198 26.1619 55.8545 23.7296C57.1587 21.3519 58.6618 19.3571 60.5315 17.4733C63.3753 14.5983 68.6065 11.2313 73.0026 11.8588C75.472 14.2492 75.3922 18.5548 74.5001 21.6196C73.4957 25.2127 71.4034 28.4788 69.1973 31.389C61.0813 41.879 50.349 49.9399 40.1644 59.3742C44.9426 56.2641 50.2561 52.48 56.3919 51.1626C64.0121 49.5453 68.3631 53.5246 68.6519 53.6057C70.2723 54.8867 71.3478 56.6458 71.7026 58.5192C72.5624 62.2919 70.3367 66.3301 66.5676 68.1004C62.1613 70.1811 57.8635 69.535 55.5262 67.7063C54.2413 66.7175 53.7301 65.4435 53.7295 64.2127C53.7286 62.9856 54.2366 61.9225 54.8544 61.1823C56.1556 59.6632 57.7344 59.5739 57.6643 59.5322C57.6643 59.5322 57.3324 59.5351 56.7173 59.6548C52.816 60.3832 50.6364 65.7209 54.0754 68.8389C57.3003 72.0049 63.6956 72.4409 68.0525 70.3175C73.5619 67.9156 76.0676 62.8123 75.117 58.0302C73.6017 50.7406 64.1985 46.1837 54.4289 49.5532C60.9905 44.5134 67.1684 39.1291 72.2566 33.0643C74.7174 30.0543 77.1509 26.6106 78.4817 22.4502C80.0552 17.6117 79.6158 11.8568 75.3625 8.47104C68.5486 6.83601 61.5198 10.3336 56.8544 14.89C55.4561 16.239 54.1787 17.7707 53.0589 19.3568C53.0716 17.8449 52.9769 16.3017 52.6729 14.7987C51.5056 8.32965 47.7311 1.9371 40.181 0.317871L39.8833 0.383753C32.6241 1.83914 28.7128 8.72397 27.6408 14.9196C27.346 16.3881 27.2569 17.8893 27.2732 19.3613C24.5004 15.4257 20.6773 11.745 15.7331 9.64093C12.3526 8.21565 8.6295 7.59406 4.97112 8.47104C3.61084 9.55382 2.76741 10.7738 2.07361 12.2225C-1.10502 19.0809 3.10466 27.0051 8.08235 33.0675C13.1577 39.1003 19.4328 44.5808 25.9141 49.5582C23.1039 48.5874 20.3127 48.0515 16.9684 48.5684Z" fill="#3B181E"/>
</svg>
