<svg width="64" height="59" viewBox="0 0 64 59" fill="none" xmlns="http://www.w3.org/2000/svg">
<path d="M13.4535 39.6605C8.3292 40.4403 4.80303 43.3698 3.98663 47.3151C3.22235 51.1753 5.22999 55.309 9.67464 57.2555C13.1987 58.9813 18.3426 58.6114 20.9299 56.0593C23.7375 53.5017 21.8881 49.2079 18.803 48.6294C18.3077 48.5328 18.0404 48.5304 18.0404 48.5304C17.9837 48.5641 19.2551 48.6362 20.3029 49.8653C21.5902 51.4146 21.5902 53.7297 19.7616 55.1431C17.8814 56.6213 14.4215 57.1469 10.8704 55.4621C7.83529 54.0301 6.04352 50.763 6.73608 47.7109C7.3598 44.4021 10.6538 42.2487 13.9257 41.6698C17.3261 41.0416 20.4638 41.885 23.5785 43.2982C27.3653 45.0862 29.6366 46.7703 32.1329 48.4026C23.9462 40.7573 15.3442 34.287 8.7607 25.7633C5.65385 21.6647 2.52572 15.8242 4.75187 11.3418C4.88263 11.0889 5.24194 10.3938 5.69353 9.96315C6.65145 9.82302 8.6352 10.0202 10.7337 10.9517C14.6634 12.7082 17.7009 16.2628 19.5326 19.6275C20.6108 21.604 21.7064 23.6125 22.8181 25.6501L26.6875 24.7861C26.481 22.7942 26.2718 20.7768 26.06 18.7362C25.8621 16.7209 25.7887 14.8616 26.1812 12.9404C27.465 5.64222 31.9531 4.51671 32.1444 4.32268C35.0504 5.82008 37.1747 7.94871 38.0748 12.854C38.4695 14.7828 38.4203 16.6337 38.2254 18.6501C38.0225 20.6913 37.8221 22.709 37.6242 24.7011L41.4924 25.5602C42.6003 23.5326 43.6923 21.5338 44.7671 19.566C45.8173 17.6424 47.0277 16.0286 48.5333 14.5047C50.8233 12.1788 55.0358 9.45491 58.5759 9.96256C60.5644 11.8964 60.5001 15.3796 59.7817 17.859C58.9729 20.7658 57.288 23.4081 55.5115 25.7625C48.9761 34.2488 40.3337 40.7701 32.1324 48.4024C35.9801 45.8863 40.2589 42.825 45.1998 41.7592C51.3361 40.4509 54.8398 43.6701 55.0724 43.7357C56.3772 44.772 57.2433 46.1951 57.529 47.7107C58.2213 50.7628 56.4291 54.0297 53.3939 55.4619C49.8458 57.1451 46.3848 56.6225 44.5027 55.1431C43.468 54.3431 43.0564 53.3125 43.0559 52.3167C43.0552 51.324 43.4642 50.464 43.9617 49.8651C45.0095 48.6362 46.2809 48.5639 46.2245 48.5302C46.2245 48.5302 45.9572 48.5326 45.4618 48.6294C42.3203 49.2187 40.5651 53.5368 43.3344 56.0593C45.9314 58.6206 51.0812 58.9733 54.5897 57.2555C59.0263 55.3123 61.0439 51.1838 60.2785 47.3151C59.0583 41.4179 51.4862 37.7313 43.6191 40.4573C48.9029 36.3801 53.8778 32.0242 57.9751 27.1177C59.9567 24.6827 61.9163 21.8967 62.988 18.531C64.255 14.6167 63.9012 9.96096 60.4762 7.22187C54.9892 5.89914 49.3292 8.72866 45.5723 12.4148C44.4463 13.5061 43.4176 14.7452 42.5159 16.0284C42.5262 14.8053 42.4499 13.5569 42.2051 12.3409C41.2651 7.10748 38.2256 1.93593 32.1458 0.625977L31.906 0.679275C26.0605 1.85668 22.9108 7.42649 22.0476 12.4387C21.8102 13.6267 21.7385 14.8413 21.7516 16.032C19.5188 12.8482 16.4401 9.87053 12.4588 8.16831C9.73656 7.01526 6.73848 6.51239 3.79251 7.22187C2.69713 8.09784 2.01795 9.0848 1.45926 10.2568C-1.10039 15.8053 2.28952 22.2159 6.29788 27.1203C10.3849 32.0008 15.438 36.4346 20.6572 40.4612C18.3942 39.6759 16.1465 39.2423 13.4535 39.6605Z" fill="#3B181E"/>
</svg>
