<svg width="163" height="48" viewBox="0 0 163 48" fill="none" xmlns="http://www.w3.org/2000/svg">
<path d="M154.663 5.54389C152.233 5.85284 147.853 7.75092 129.85 8.01298C117.613 7.87751 105.757 6.40978 94.6296 4.88011C77.2975 2.47394 58.364 -0.427976 40.8496 0.464559C26.9858 1.15327 17.4092 4.34266 11.559 7.56462C4.83389 11.3085 -0.255732 16.9443 0.691596 17.4978C0.711783 17.5646 1.32097 17.4815 2.44761 17.3272C47.0204 13.0815 29.2046 47.343 29.2046 47.343C29.2046 47.343 51.1247 42.9926 47.5186 27.2579C46.3159 22.0095 42.358 18.8915 37.2318 17.118C52.105 18.549 64.3703 20.9492 79.8153 22.8399C97.6723 24.9978 117.872 25.5617 134.96 20.9285C148.736 17.1937 156.054 10.5119 155.752 10.738C156.005 10.4964 163.433 3.40102 162.98 3.83334L154.663 5.54389ZM150.066 10.9371C132.373 23.0844 103.023 23.0089 80.1962 20.5475C60.8717 18.4391 42.2306 14.8956 23.4052 14.9398C16.2116 14.928 10.4597 15.5037 6.58042 16.1425C4.9764 16.4071 3.03037 16.7762 1.48098 17.2098C3.28925 16.0011 6.03208 12.9985 13.0256 9.53253C18.6635 6.77942 27.7024 3.98239 41.0499 3.47677C58.2016 2.81298 76.8682 5.73292 93.9878 8.11046C105.156 9.64334 117.214 11.1247 129.833 11.2204C138.157 11.0746 144.143 10.8019 152.248 9.21521C150.899 10.2753 149.772 11.1612 150.066 10.9371Z" fill="#3B181E"/>
</svg>
