<svg width="132" height="39" viewBox="0 0 132 39" fill="none" xmlns="http://www.w3.org/2000/svg">
<path d="M47.2942 19.9959C62.926 20.0019 77.2252 17.1969 89.4836 15.5224C93.765 14.9126 97.7973 14.4203 101.571 14.0506C97.4296 15.4837 94.2312 18.0082 93.2603 22.2633C90.3562 34.9927 108.007 38.512 108.007 38.512C108.007 38.512 93.6629 10.7952 129.552 14.229C130.444 14.351 130.953 14.4177 130.968 14.3672C131.617 13.9829 128.173 9.59624 122.271 6.28159C104.982 -3.24133 75.7261 1.1611 55.34 4.15793C37.1883 6.72058 23.2538 8.00659 6.48504 4.54602C4.32488 4.09146 2.15539 3.53529 0 3.03183L3.61916 6.52534C14.9514 17.2063 30.1833 20.0135 47.2942 19.9959ZM55.8634 6.76988C75.696 3.8525 103.735 -0.58386 121.093 7.87524C126.673 10.6663 128.878 13.193 130.296 14.1236C127.361 13.3024 122.939 12.7474 119.555 12.5192C109.702 11.8453 98.9749 12.7869 89.196 14.0063C76.8138 15.4837 62.5798 18.0637 47.3064 17.8908C35.4548 17.7832 23.8108 16.2144 13.8434 11.011C11.7561 9.76853 8.71358 7.71573 8.94691 7.67421C25.9655 10.2959 37.5411 9.35509 55.8634 6.76988Z" fill="#3B181E"/>
</svg>
