<svg width="131" height="39" viewBox="0 0 131 39" fill="none" xmlns="http://www.w3.org/2000/svg">
<path d="M124.286 4.69715C122.33 4.94707 118.803 6.48251 104.305 6.6945C94.4513 6.58491 84.9044 5.39761 75.9438 4.16019C61.9869 2.21374 46.7405 -0.133748 32.6368 0.588262C21.4728 1.14539 13.7611 3.72542 9.05019 6.33181C3.63472 9.36038 -0.463757 13.9194 0.29909 14.3671C0.315346 14.4212 0.8059 14.354 1.71314 14.2292C37.6059 10.7946 23.2596 38.5103 23.2596 38.5103C23.2596 38.5103 40.9109 34.991 38.0071 22.2625C37.0386 18.0169 33.8515 15.4946 29.7236 14.0599C41.7003 15.2175 51.5772 17.1592 64.0144 18.6886C78.394 20.4343 94.66 20.8904 108.42 17.1424C119.514 14.1212 125.407 8.71601 125.164 8.89886C125.367 8.70344 131.348 2.96369 130.984 3.31342L124.286 4.69715ZM120.584 9.05996C106.337 18.8864 82.7028 18.8254 64.3211 16.8342C48.7598 15.1287 33.7489 12.2622 18.5895 12.2979C12.7968 12.2883 8.16496 12.754 5.04114 13.2708C3.74948 13.4848 2.18242 13.7835 0.934755 14.1342C2.39088 13.1565 4.59958 10.7275 10.2312 7.92373C14.7712 5.69662 22.0499 3.43398 32.7981 3.02497C46.6097 2.488 61.6412 4.85006 75.427 6.77336C84.42 8.01337 94.13 9.21167 104.292 9.28912C110.994 9.17114 115.815 8.95057 122.342 7.66704C121.256 8.52459 120.348 9.24121 120.584 9.05996Z" fill="#3B181E"/>
</svg>
