<svg width="163" height="48" viewBox="0 0 163 48" fill="none" xmlns="http://www.w3.org/2000/svg">
<path d="M58.7313 24.4565C78.1434 24.4639 95.9006 20.9968 111.123 18.927C116.44 18.1732 121.448 17.5647 126.133 17.1077C120.991 18.8791 117.019 21.9996 115.813 27.2591C112.207 42.9933 134.126 47.3433 134.126 47.3433C134.126 47.3433 116.313 13.0839 160.882 17.3283C161.989 17.4791 162.621 17.5615 162.64 17.499C163.446 17.024 159.169 11.6019 151.84 7.50482C130.37 -4.26602 94.0389 1.17562 68.7229 4.87987C46.1815 8.04743 28.8773 9.63701 8.05332 5.35955C5.37076 4.7977 2.67662 4.11025 0 3.48794L4.49439 7.80611C18.5671 21.0084 37.4825 24.4782 58.7313 24.4565ZM69.3728 8.10838C94.0015 4.50233 128.821 -0.981242 150.377 9.47465C157.307 12.9245 160.045 16.0476 161.805 17.198C158.161 16.1829 152.67 15.4969 148.467 15.2148C136.231 14.3818 122.91 15.5457 110.766 17.0529C95.3897 18.8791 77.7135 22.0682 58.7465 21.8545C44.0289 21.7215 29.569 19.7822 17.1911 13.3506C14.5991 11.8149 10.8208 9.2775 11.1105 9.22617C32.2447 12.4668 46.6197 11.3038 69.3728 8.10838Z" fill="#3B181E"/>
</svg>
