<svg width="48" height="47" viewBox="0 0 48 47" fill="none" xmlns="http://www.w3.org/2000/svg">
<path d="M43.9797 17.1685L46.6093 14.9373L42.5453 13.5826C40.7921 13.0248 38.8796 13.1841 37.2859 14.1404L38.0031 18.4435C40.075 19.081 42.3062 18.6029 43.9797 17.1685Z" fill="#305C1E"/>
<path d="M36.8875 12.7859C40.3937 10.7937 42.625 7.04844 42.625 2.98438V1.39062C37.6047 1.39062 33.2219 4.7375 31.8672 9.59844" fill="#305C1E"/>
<path d="M31.4688 34.8593C31.4688 40.9952 36.4891 46.0155 42.625 46.0155V44.4218C42.625 38.8437 38.4812 34.1421 32.9031 33.3452" fill="#305C1E"/>
<path d="M34.1781 31.0343L36.7281 32.9468C38.4015 34.1422 40.5531 34.5406 42.5453 33.8234L46.6094 32.4687L43.9797 30.2375C42.1469 28.7234 39.6765 28.2453 37.4453 29.2015L34.5765 30.3968" fill="#305C1E"/>
<path d="M38.4813 21.3127L37.2063 13.6627C37.1266 12.9455 36.6485 12.308 36.011 11.9893L32.1063 9.75801C31.6282 9.51895 31.0703 9.35957 30.5922 9.43926L25.8907 10.1564L22.7032 9.35957L19.675 6.96895C19.1172 6.49082 18.2407 6.49082 17.6828 6.96895L15.2125 8.96113C14.8938 9.2002 14.4953 9.35957 14.0172 9.27988L9.23597 8.72207C8.35941 8.64238 7.56254 9.27988 7.48285 10.1564C7.48285 10.2361 7.48285 10.2361 7.48285 10.3158V10.9533L3.49847 16.0533C2.54222 17.3283 2.38285 19.0814 3.17972 20.4361L3.81722 21.5518L3.57816 21.3127L1.90472 23.3846C1.10785 24.4205 1.26722 25.9346 2.30316 26.7314C2.30316 26.7314 2.30316 26.7314 2.38285 26.8111L6.76566 30.0783C6.76566 30.0783 4.37504 37.2502 12.3438 40.4377C20.3125 43.6252 23.5 38.0471 23.5 38.0471C23.5797 38.0471 23.6594 38.0471 23.6594 38.0471L28.2813 37.4096C28.7594 37.3299 29.2375 37.0908 29.636 36.7721L32.7438 33.6643C32.9032 33.5049 33.0625 33.2658 33.2219 33.0268L38.2422 22.9064C38.4813 22.3486 38.561 21.8705 38.4813 21.3127Z" fill="#BD0000"/>
<path d="M16.2485 21.233L17.6829 22.269C18.2407 22.6674 18.9579 22.8268 19.5954 22.6674L25.811 21.3924C26.7672 21.233 27.5641 20.4361 27.7235 19.4002L28.1219 16.7705C28.2813 15.8143 27.8032 14.858 27.0063 14.3002L24.2969 12.7064C23.8985 12.4674 23.5 12.3877 23.1016 12.3877H21.0297C20.3922 12.3877 19.7547 12.6268 19.3563 13.1049L18.2407 14.2205C18.0016 14.4596 17.9219 14.858 18.0813 15.1768L18.4797 15.9736L17.4438 16.2924C16.9657 16.4518 16.4875 16.7705 16.2485 17.2486L15.7704 17.9658C14.9735 19.0814 15.2125 20.5158 16.2485 21.233ZM17.0454 18.9221L17.5235 18.2049C17.6032 18.0455 17.7625 17.9658 17.9219 17.8861L18.7985 17.5674C18.9579 18.7627 20.3125 19.6393 21.986 19.6393C23.7391 19.6393 25.1735 18.6033 25.1735 17.2486C25.1735 15.8939 23.7391 14.858 21.986 14.858C21.2688 14.858 20.5516 15.0174 19.9938 15.4158L19.8344 15.0174L20.5516 14.3002C20.711 14.1408 20.8704 14.0611 21.1094 14.0611H23.1813C23.3407 14.0611 23.5 14.0611 23.5797 14.1408L26.2891 15.7346C26.6079 15.8939 26.6875 16.2127 26.6875 16.5314L26.2891 19.1611C26.2094 19.4799 25.9704 19.7189 25.6516 19.7986L19.436 21.0736C19.1969 21.1533 18.9579 21.0736 18.7985 20.9143L17.3641 19.8783C16.886 19.7189 16.8063 19.2408 17.0454 18.9221ZM20.3125 17.3283C20.3125 17.0096 20.95 16.5314 21.9063 16.5314C22.8625 16.5314 23.5 17.0096 23.5 17.3283C23.5 17.6471 22.8625 18.1252 21.9063 18.1252C20.95 18.1252 20.3125 17.6471 20.3125 17.3283Z" fill="black"/>
<path d="M34.4302 35.898L33.3032 37.0249L34.881 38.6026L36.0079 37.4757L34.4302 35.898Z" fill="black"/>
<path d="M1.90468 27.4484L5.88906 30.3969C5.49062 32.3094 4.85312 38.2859 12.1047 41.1547C13.6188 41.7922 15.2922 42.1906 16.9656 42.1906C19.7547 42.2703 22.3047 40.9953 23.9781 38.7641L28.4406 38.1266C29.1578 38.0469 29.7156 37.7281 30.2734 37.25L30.9109 36.6125C31.7078 42.5094 36.7281 46.8125 42.625 46.8125C43.1031 46.8125 43.4219 46.4938 43.4219 46.0156V44.4219C43.4219 40.4375 41.4297 36.6922 38.0828 34.4609C39.5969 35.0187 41.2703 35.0984 42.7844 34.5406L46.8484 33.1859C47.2469 33.0266 47.4859 32.6281 47.3266 32.15C47.2469 31.9906 47.1672 31.9109 47.0875 31.8313L44.4578 29.6C42.4656 27.8469 39.5969 27.3688 37.1266 28.4047L36.1703 28.8031L38.9594 23.225C39.2781 22.5875 39.3578 21.95 39.2781 21.3125L38.9594 19.5594C39.1984 19.5594 39.5172 19.6391 39.8359 19.6391C41.5094 19.6391 43.1828 19.0016 44.4578 17.9656L47.0875 15.7344C47.4063 15.4156 47.4859 14.9375 47.1672 14.6188C47.0875 14.5391 46.9281 14.4594 46.8484 14.3797L42.7844 13.025C41.2703 12.5469 39.5969 12.5469 38.0828 13.1047C41.4297 10.7141 43.4219 6.96875 43.4219 2.98438V1.39062C43.4219 0.9125 43.1031 0.59375 42.625 0.59375C37.525 0.59375 32.9828 3.86094 31.3094 8.72188C31.0703 8.72188 30.7516 8.72188 30.5125 8.72188L25.8109 9.35938C24.8547 8.88125 23.8984 8.5625 22.8625 8.48281L20.1531 6.33125C19.2766 5.61406 18.0016 5.61406 17.2047 6.33125L14.7344 8.32344C14.575 8.48281 14.3359 8.48281 14.1766 8.48281L9.39531 7.925C8.12031 7.76562 6.925 8.72188 6.76562 9.99687C6.76562 10.0766 6.76562 10.1562 6.76562 10.2359V10.5547L3.02031 15.4156C1.825 16.9297 1.66562 19.0016 2.62187 20.675L2.78125 20.9141L1.34687 22.9062C0.231246 24.2609 0.470309 26.2531 1.825 27.3687C1.825 27.3687 1.825 27.3688 1.90468 27.4484ZM12.6625 39.7203C7.24375 37.5687 7.08437 33.5047 7.32344 31.5125C7.64219 31.6719 7.96094 31.8312 8.27969 31.9109C11.2281 32.8672 13.3 33.5047 14.8141 33.9031V35.1781C14.8141 36.2141 15.3719 37.25 16.2484 37.8078L16.9656 38.2859C17.5234 38.6047 18.0813 38.8438 18.7188 38.8438H21.8266C20.3922 40.1188 17.4438 41.6328 12.6625 39.7203ZM41.8281 43.8641L37.6844 39.0828L36.4891 40.1187L40.7125 44.9797C35.9313 44.1031 32.425 39.9594 32.2656 35.0984L33.2219 34.1422C38.0031 35.0187 41.5094 39.0828 41.8281 43.8641ZM37.7641 29.8391C39.6766 29.0422 41.9078 29.4406 43.5016 30.7953L45.0953 32.15L42.3859 33.0266C40.6328 33.5844 38.8 33.2656 37.2859 32.2297L35.3734 30.875L37.7641 29.8391ZM36.1703 33.425C35.5328 33.1859 34.8953 32.9469 34.1781 32.7875L34.4969 32.2297L36.1703 33.425ZM42.3063 14.3797L45.0156 15.2562L43.4219 16.6109C42.1469 17.7266 40.3938 18.2047 38.7203 17.8062L38.1625 14.6188C39.5172 13.9813 40.9516 13.9016 42.3063 14.3797ZM40.7125 2.34687L36.4891 7.20781L37.6844 8.24375L41.8281 3.4625C41.6688 6.80937 39.8359 9.8375 37.0469 11.6703C36.8875 11.5109 36.6484 11.3516 36.4891 11.2719L32.9031 9.2C34.0188 5.69375 37.0469 3.06406 40.7125 2.34687ZM30.7516 10.2359C31.0703 10.1562 31.4688 10.2359 31.7875 10.3953L35.6922 12.6266C36.0906 12.8656 36.4094 13.2641 36.4891 13.7422L37.7641 21.3922C37.8438 21.7109 37.7641 22.0297 37.6047 22.3484L32.5844 32.4688C32.5047 32.6281 32.425 32.7875 32.2656 32.8672L29.0781 36.1344C28.8391 36.3734 28.5203 36.5328 28.2016 36.6125L23.5797 37.25C23.5 37.25 23.4203 37.25 23.3406 37.25H18.6391C18.3203 37.25 18.0016 37.1703 17.7625 37.0109L17.0453 36.5328C16.5672 36.2141 16.3281 35.7359 16.3281 35.1781V34.3813C17.125 34.6203 17.9219 34.7797 18.7188 34.8594C20.3922 34.8594 22.9422 32.5484 23.8188 31.6719H25.3328C25.8109 31.6719 26.3688 31.5125 26.7672 31.1938L32.2656 27.1297C32.7438 26.8109 33.0625 26.2531 33.1422 25.6953L33.7797 22.4281V22.3484L35.0547 18.4438C35.2938 17.7266 35.2141 16.9297 34.7359 16.2922L31.7078 12.0687C31.3891 11.3516 30.5922 10.9531 29.875 10.9531H27.8031C27.7234 10.8734 27.6438 10.7937 27.5641 10.7141L30.7516 10.2359ZM7.48281 15.4953C7.48281 15.3359 7.5625 15.1766 7.5625 14.9375C8.12031 14.0609 8.75781 13.1844 9.55469 12.4672C9.79375 12.1484 10.2719 12.1484 10.5906 12.3875L11.7859 13.2641C11.0687 13.9016 10.75 14.7781 10.75 15.6547C10.75 19.0812 13.2203 22.3484 13.3 22.5078C13.3797 22.5875 13.3797 22.5875 13.4594 22.6672L17.4438 25.8547C17.5234 25.8547 17.5234 25.9344 17.6031 25.9344C17.6828 26.0938 20.95 27.6875 23.5 27.6875C25.6516 27.6875 26.7672 25.6953 27.2453 24.6594C28.1219 24.4203 28.9188 23.8625 29.3172 23.0656L31.3891 19.4C31.4688 19.1609 31.4688 18.9219 31.4688 18.6828C30.8313 16.5313 29.9547 14.4594 28.9188 12.5469H29.875C30.1141 12.5469 30.3531 12.7062 30.5125 12.8656L33.5406 17.0891C33.7 17.3281 33.7 17.5672 33.6203 17.8062L32.3453 21.7109C32.3453 21.7906 32.2656 21.8703 32.2656 22.0297L31.6281 25.2969C31.6281 25.4562 31.4688 25.6953 31.3094 25.775L27.4844 28.6438C27.9625 27.8469 28.2813 26.9703 28.3609 26.0141H26.7672C26.7672 26.0141 26.6875 28.6438 23.4203 29.9984H22.9422C21.3484 29.6797 16.1688 27.1297 11.3078 22.9859C6.76562 19.2406 7.24375 16.6109 7.48281 15.4953ZM15.5312 16.5312C15.5312 14.6187 16.8859 12.9453 18.7984 12.5469H18.8781C19.1172 12.4672 19.2766 12.3875 19.3563 12.2281L20.7906 10.1562C21.7469 10.0766 24.4563 9.91719 26.1297 11.5906C28.0422 13.5031 29.4766 17.7266 29.7953 18.9219L27.8828 22.3484C27.4047 23.225 26.2891 23.5438 25.4922 23.0656C25.2531 22.9062 25.0938 22.7469 24.9344 22.5875L23.6594 23.5437C24.1375 24.1812 24.775 24.5797 25.4922 24.7391C25.1734 25.5359 24.3766 26.0938 23.5 26.2531C21.5078 26.2531 18.7984 24.9781 18.3203 24.7391L14.4953 21.7109C14.1766 21.2328 12.3438 18.5234 12.3438 15.8938C12.2641 15.4156 12.5031 14.9375 12.8219 14.6984C13.3 14.3797 13.9375 14.2203 14.4953 14.2203C14.0969 15.0172 13.9375 15.8141 13.9375 16.6906H15.5312V16.5312ZM8.59844 9.75781C8.75781 9.59844 8.99687 9.51875 9.23594 9.59844L14.0172 10.1562C14.6547 10.2359 15.2922 10.0766 15.7703 9.67812L18.2406 7.68594C18.5594 7.44687 18.9578 7.44687 19.2766 7.68594L20.4719 8.64219C20.3125 8.64219 20.2328 8.64219 20.2328 8.72188C19.9938 8.80156 19.8344 8.88125 19.7547 9.04063L18.3203 11.1922C17.2844 11.4313 16.4078 11.9891 15.6906 12.7063C14.9734 12.5469 14.2562 12.5469 13.5391 12.7063L11.5469 11.1922C10.5906 10.475 9.23594 10.5547 8.35937 11.4313V10.3156C8.35937 10.0766 8.43906 9.91719 8.59844 9.75781ZM4.21562 16.5312L6.76562 13.2641C6.04844 14.2203 5.96875 14.6187 5.96875 14.8578C5.96875 14.9375 5.96875 15.0172 5.88906 15.1766C5.65 16.4516 5.0125 19.7984 10.1922 24.2609C14.0172 27.5281 18.8781 30.3969 21.7469 31.3531C20.5516 32.3891 19.2766 33.2656 18.7188 33.2656C18.4797 33.2656 16.9656 33.0266 8.67812 30.3969C7.16406 29.9188 6.20781 28.4047 6.52656 26.8109C6.68594 25.775 6.52656 24.6594 5.96875 23.7031L3.97656 20.0375C3.33906 18.9219 3.41875 17.5672 4.21562 16.5312ZM2.54218 23.8625L3.57812 22.5875L4.61406 24.5C4.93281 25.1375 5.09219 25.8547 5.0125 26.5719C4.93281 26.9703 4.93281 27.3687 5.0125 27.6875L2.94062 26.0938C2.14375 25.6156 1.98437 24.5797 2.54218 23.8625Z" fill="black"/>
</svg>
