<svg width="65" height="65" viewBox="0 0 65 65" fill="none" xmlns="http://www.w3.org/2000/svg">
<path d="M57.4167 49.31H63.9167V37.3933L54.1667 22.2266H42.25V49.31H46.5833" fill="#FDB62F"/>
<path d="M9.74999 49.31H1.08328V14.6433H42.25V49.31H20.5833" fill="#FDB62F"/>
<path d="M7.58328 43.8936H1.08328V46.0603H7.58328V43.8936Z" fill="#F46B27"/>
<path d="M42.25 43.8936H22.75V46.0603H42.25V43.8936Z" fill="#F46B27"/>
<path d="M63.9166 43.8936H59.5833V46.0603H63.9166V43.8936Z" fill="#DBDBDB"/>
<path d="M42.25 17.8933H4.33328V20.06H42.25V17.8933Z" fill="#F46B27"/>
<path d="M15.1667 54.727C18.1583 54.727 20.5834 52.3018 20.5834 49.3103C20.5834 46.3187 18.1583 43.8936 15.1667 43.8936C12.1751 43.8936 9.75 46.3187 9.75 49.3103C9.75 52.3018 12.1751 54.727 15.1667 54.727Z" fill="#126099"/>
<path d="M52 54.727C54.9916 54.727 57.4167 52.3018 57.4167 49.3103C57.4167 46.3187 54.9916 43.8936 52 43.8936C49.0084 43.8936 46.5833 46.3187 46.5833 49.3103C46.5833 52.3018 49.0084 54.727 52 54.727Z" fill="#126099"/>
<path d="M16.25 48.2268H14.0833V50.3935H16.25V48.2268Z" fill="#DBDBDB"/>
<path d="M53.0834 48.2268H50.9167V50.3935H53.0834V48.2268Z" fill="#DBDBDB"/>
<path d="M19.5 9.22681H4.33328V11.3935H19.5V9.22681Z" fill="#DBDBDB"/>
<path d="M2.16671 9.22681H0V11.3935H2.16671V9.22681Z" fill="#DBDBDB"/>
<path d="M56.9508 26.5603H46.5833V36.3103H63.2233L56.9508 26.5603Z" fill="#87CED9"/>
<path d="M44.4167 22.2271H42.25V49.3103H44.4167V22.2271Z" fill="#FFA83D"/>
<path d="M63.2233 36.3105L57.3408 27.1562C54.4494 30.5872 50.7541 33.2478 46.5833 34.902V36.3103H63.2233V36.3105Z" fill="#6CBBC7"/>
<path d="M55.0767 21.6419C54.8774 21.332 54.535 21.1446 54.1667 21.1436H43.3334V14.6436C43.3334 14.0456 42.8481 13.5603 42.2501 13.5603H1.08329C0.485342 13.5603 0 14.0456 0 14.6436V49.3103C0 49.9082 0.485342 50.3936 1.08329 50.3936H8.76408C9.38374 53.9296 12.7518 56.2935 16.2878 55.6748C18.9842 55.2024 21.0967 53.0911 21.5691 50.3936H45.5974C46.217 53.9296 49.5851 56.2935 53.1211 55.6748C55.8175 55.2024 57.93 53.0911 58.4024 50.3936H63.9166C64.5145 50.3936 64.9999 49.9082 64.9999 49.3103V37.3936C64.9999 37.1856 64.9392 36.983 64.8266 36.8086L55.0767 21.6419ZM56.3333 27.6436L61.2408 35.2269H47.6667V27.6436H56.3333ZM15.1667 53.6436C12.7736 53.6436 10.8334 51.7034 10.8334 49.3103C10.8334 46.9172 12.7736 44.977 15.1667 44.977C17.5598 44.977 19.5 46.9172 19.5 49.3103C19.5 51.7034 17.5598 53.6436 15.1667 53.6436ZM15.1667 42.8103C11.9968 42.8136 9.29284 45.1015 8.76421 48.227H2.16671V46.0603H7.58342V43.8936H2.16671V15.7269H41.1667V17.8936H4.33329V20.0603H41.1666V43.8936H22.75V46.0603H41.1667V48.227H21.5692C21.0404 45.1026 18.3365 42.8135 15.1667 42.8103ZM52 53.6436C49.6069 53.6436 47.6667 51.7034 47.6667 49.3103C47.6667 46.9172 49.6069 44.977 52 44.977C54.3931 44.977 56.3333 46.9172 56.3333 49.3103C56.3333 51.7034 54.3931 53.6436 52 53.6436ZM58.4025 48.2269C57.7828 44.6908 54.4148 42.327 50.8787 42.9456C48.1824 43.418 46.0699 45.5294 45.5975 48.2269H43.3333V23.3103H53.5708L54.9683 25.477H46.5833C45.9853 25.477 45.5 25.9623 45.5 26.5603V36.3103C45.5 36.9082 45.9853 37.3936 46.5833 37.3936H62.6275L62.8333 37.7078V43.8936H59.5833V46.0603H62.8333V48.227H58.4025V48.2269Z" fill="black"/>
<path d="M16.25 48.2271H14.0833V50.3937H16.25V48.2271Z" fill="black"/>
<path d="M53.0834 48.2271H50.9167V50.3937H53.0834V48.2271Z" fill="black"/>
<path d="M19.5 9.22681H4.33328V11.3935H19.5V9.22681Z" fill="black"/>
<path d="M2.16671 9.22681H0V11.3935H2.16671V9.22681Z" fill="black"/>
</svg>
